PathFileType	4	(X/Y/Z)	Patient4_TMGait_0pt2_02_right_01.trc.trc
DataRate	CameraRate	NumFrames	NumMarkers	Units	OrigDataRate	OrigDataStartFrame	OrigNumFrames
45.602605863192	45.602605863192	5	33	mm	45.602605863192	36	       141
Frame#	Time	R.Midfoot.Superior			Sacral			L.Shoulder			Chest			R.Shoulder			Neck			R.ASIS			L.ASIS			R.Thigh.Superior			R.Thigh.Lateral			R.Thigh.Inferior			R.Patella			L.Thigh.Superior			L.Thigh.Lateral			L.Thigh.Inferior			L.Patella			L.Shank.Superior			L.Shank.Lateral			L.Shank.Inferior			R.Shank.Superior			R.Shank.Lateral			R.Shank.Inferior			R.Heel			R.Midfoot.Lateral			R.Toe			L.Heel			L.Midfoot.Lateral			L.Midfoot.Superior			L.Toe			L.Elbow			L.Wrist			R.Elbow			R.Wrist			
		X1	Y1	Z1	X2	Y2	Z2	X3	Y3	Z3	X4	Y4	Z4	X5	Y5	Z5	X6	Y6	Z6	X7	Y7	Z7	X8	Y8	Z8	X9	Y9	Z9	X10	Y10	Z10	X11	Y11	Z11	X12	Y12	Z12	X13	Y13	Z13	X14	Y14	Z14	X15	Y15	Z15	X16	Y16	Z16	X17	Y17	Z17	X18	Y18	Z18	X19	Y19	Z19	X20	Y20	Z20	X21	Y21	Z21	X22	Y22	Z22	X23	Y23	Z23	X24	Y24	Z24	X25	Y25	Z25	X26	Y26	Z26	X27	Y27	Z27	X28	Y28	Z28	X29	Y29	Z29	X30	Y30	Z30	X31	Y31	Z31	X32	Y32	Z32	X33	Y33	Z33	

36	1.537500000000	1162.278850477351	98.031381157819	555.635976978338	876.673244767060	1006.470079577096	438.719730846652	1095.890530940096	1436.605193889158	314.547026990610	1148.072833439485	1368.024964648211	496.394078975206	1018.161970777162	1440.807853549524	639.549930566127	1030.245006284594	1496.068539514356	462.325655585258	1079.199791710788	940.583705757158	601.602686231363	1119.261386666323	963.892828912293	331.204517396660	1142.546473457015	748.261102737134	565.332198769953	1067.672441331100	630.642558731808	616.289511145190	1154.599563535674	587.217131925296	540.167909759066	1162.804875858643	500.206135159911	544.970277208037	1120.885496597460	731.577007430905	350.817207176927	1017.659907512763	630.896811503878	272.106982724965	1076.531466040780	540.388853019875	340.667731391240	1063.212184007385	469.144739155641	343.361825687729	1020.402616069759	406.086587840430	329.435668045107	909.982903286332	315.234426737475	269.629686982739	934.781479082733	191.451908675958	334.323906527233	1139.118536827099	408.572461848922	551.369444010475	1072.109253837510	302.188099620279	614.760329965361	1118.894672038583	208.865690580966	551.606735857528	990.271689031061	41.863138125528	526.897725178488	1077.013419521067	36.807840960435	597.712966894001	1283.614297930256	50.171980520139	577.575552940619	781.780937345410	50.513398406115	364.595484685960	857.304705177330	42.177422297035	286.648987448275	944.463449427980	98.230904633235	314.948597629011	1068.922938365430	39.537724666498	287.852900739671	1264.607629566228	1159.014798841753	164.243572025033	1521.010733357373	1176.069869678253	202.173543309612	859.250461517951	1125.866254356726	712.982462041825	895.823828267959	867.635045983739	729.765215554570	
37	1.559428571429	1158.009176374682	97.985571113588	555.813907843479	877.416856028391	1007.247438879414	445.184177565104	1095.233904184059	1437.117522247992	317.993655712181	1149.022504477677	1369.134352918483	499.616044477038	1020.117084385743	1442.207241349099	643.547188117362	1030.728500615057	1496.952794366355	465.963947322856	1081.008632602350	941.569144342811	606.594647742797	1119.121545848760	964.505580714949	335.913677240605	1142.165819627689	747.778140392243	569.539791983089	1066.153025472580	630.715139914214	620.254015272026	1152.144183598272	586.776492606756	543.492703525522	1159.323900914699	499.898994385371	547.573634398906	1121.506068055505	732.338202500995	354.448527014983	1018.238901771358	631.697475469649	275.694907340408	1078.533855787523	540.751340417417	342.969392144782	1065.550162464954	468.788921638885	344.758931638754	1021.218345912004	406.541732221040	330.896272763951	908.972659470571	317.750298951879	271.359085589713	932.994798958659	192.847381098713	334.386863860578	1135.551632796648	408.418161188320	553.575999271349	1068.475379066432	301.776379476573	616.338886429478	1114.869919086536	208.756106475968	552.493506294258	985.988373974880	41.861447401266	526.950321200794	1072.731623467161	36.824216005717	597.830121589771	1279.330873857214	50.083368735973	577.649263024167	778.278219409563	53.936230295067	364.379010171769	853.597138840426	43.884021782622	286.551330015780	941.648375134720	98.648387839984	314.474799184493	1064.960122975954	38.929098477339	287.734256001869	1260.925114030350	1155.939642269439	169.397476685429	1517.894630333459	1170.060131087450	205.769018391358	862.195561733518	1127.237128122770	720.017614988834	903.342646668318	869.921513600693	737.553893116791	
38	1.581357142857	1153.704699487186	97.900439691008	555.960998440625	877.938807786081	1007.968112382648	451.657806859978	1094.158934320380	1437.623693599058	321.255536776586	1149.769974452843	1370.189415848288	502.563617257230	1022.057595196311	1443.494746037493	647.443148796589	1030.999454092984	1497.792762285536	469.479528642721	1082.737017189873	942.454734003916	611.377624164635	1118.660607998990	965.107397319801	340.381167744052	1141.652169380014	747.220353409169	573.566904118640	1064.486502331812	630.744234852637	624.086201289402	1149.514640333678	586.288976427291	546.680703796985	1155.664581304801	499.575520589482	550.088075608645	1122.538224635682	733.326117809199	357.927337110964	1019.663964036120	632.359141520737	279.180491037317	1081.783017254993	541.168776258017	345.135332462871	1069.261841422012	468.333093795230	345.950442741720	1023.192013690702	406.907899007313	332.238396432612	908.938454159655	320.539218099427	273.003743200654	931.834369975860	194.516300198328	334.339156566633	1131.833914451664	408.262712022776	555.709601209841	1064.723769384772	301.359371865963	617.846635909920	1110.763165078607	208.647050349873	553.340002029267	981.650016731962	41.873458018369	526.979905130705	1068.391279436323	36.837734391763	597.915101079321	1275.004025522585	49.909580120509	577.712144025296	775.007672790683	58.262686217790	364.065920889097	849.997752093761	46.109512284907	286.384183034500	939.101778807464	99.232972449637	313.888537957988	1060.895702577062	38.305322382231	287.655889613489	1255.865598027012	1152.095350086238	174.655867535242	1513.549333780330	1162.137624375808	209.203206062570	865.846368485720	1128.053928546016	726.959526661208	911.292313706350	871.653957297982	744.758315770384	
39	1.603285714286	1149.367622475687	97.783576141985	556.077863740358	878.226298671740	1008.587116024070	458.139179673713	1092.675742157513	1438.070537033157	324.357104406000	1150.302457254835	1371.127301728519	505.257756363264	1023.966056294871	1444.601477718774	651.247708313322	1031.050774842021	1498.533571031615	472.891718464288	1084.378927377385	943.200250316712	615.950137411834	1117.866516453621	965.644416119342	344.612984131169	1141.107721712372	746.622587513220	577.390122603333	1062.846700325005	630.710924567378	627.767639985474	1146.898995005148	585.767814867445	549.708950182982	1152.064891022894	499.210197096747	552.503089085592	1124.021421049647	734.543472363651	361.274831550083	1022.058684814869	632.864612355782	282.558626277717	1086.391585137926	541.672953101218	347.205576094314	1074.463790326573	467.812946650030	346.990902945308	1026.465726228552	407.190290868063	333.506577260609	910.041911600578	323.657967340231	274.570871764820	931.379658864522	196.545865638930	334.228348739713	1128.148641425828	408.074295576011	557.750285288047	1061.003492180271	300.933058025707	619.292246183088	1106.656039807009	208.514449488115	554.134428973787	977.265867788244	41.894621475222	526.989672774155	1063.999787904972	36.847091199248	597.973244381507	1270.642163866555	49.667951093795	577.768588560407	772.020086185264	63.714888265192	363.666248510700	846.531628253372	49.059981182109	286.160929390371	936.852039067301	100.102171839633	313.229548832480	1056.675472393451	37.663241972161	287.645719726544	1249.358903612804	1147.471160025526	180.032129013585	1507.822926638615	1152.071994452892	212.517552255979	870.326671146246	1128.167341138985	733.771360935223	919.832857990156	872.665496218015	751.350839079337	
40	1.625214285714	1145.003988260374	97.645610381843	556.167291292415	878.261174842674	1009.047918403521	464.631217244329	1090.796424413043	1438.390066244580	327.319361355045	1150.613707837358	1371.872438177133	507.714670604632	1025.836977424951	1445.453599166416	654.966654701711	1030.882314638604	1499.110481087139	476.217284847754	1085.926716484547	943.758670457262	620.306767065987	1116.716040384888	966.053040514722	348.612004518692	1140.641249314373	746.013236815468	580.982564572357	1061.426510325694	630.585863178867	631.278157454466	1144.506669557571	585.221895650633	552.548938436727	1148.790810141874	498.768749412407	554.800452049399	1125.972842244176	735.994482981012	364.518425744183	1025.527687146152	633.211957298842	285.830782323132	1092.434823416869	542.315321026993	349.239702725173	1081.241567865886	467.288302749275	347.960168771629	1031.158839922526	407.408842720916	334.762867366269	912.433773885300	327.167553523230	276.078422127067	931.700286516473	199.032201685375	334.120671804759	1124.698826016433	407.812779926828	559.672557906078	1057.477660586523	300.489299625487	620.679147756266	1102.638742733434	208.331764340437	554.863297842651	972.849682923370	41.920776854456	526.984778834278	1059.570145120736	36.852139518328	598.011697779487	1266.256378858250	49.380847245896	577.822745353512	769.377138400253	70.513019902731	363.204768923094	843.241233714198	52.964818181418	285.904853648430	934.934559938241	101.400812782567	312.557836815832	1052.265968528073	36.996803800359	287.731324897016	1241.386765717872	1142.094466626028	185.521583523407	1500.555369055711	1139.646396917627	215.758001771570	875.728688550394	1127.469573177090	740.432156265838	929.138815167976	872.842711703659	757.336722109597	
